<svg xmlns="http://www.w3.org/2000/svg" viewBox="0 0 128 128" width="128" height="128">
  <defs>
    <radialGradient id="pBody" cx="0.35" cy="0.30" r="0.70">
      <stop offset="0%" stop-color="#D088FF"/>
      <stop offset="25%" stop-color="#A840E8"/>
      <stop offset="55%" stop-color="#7828B8"/>
      <stop offset="85%" stop-color="#481878"/>
      <stop offset="100%" stop-color="#301058"/>
    </radialGradient>
    <radialGradient id="pInner" cx="0.40" cy="0.35" r="0.45">
      <stop offset="0%" stop-color="#C078FF"/>
      <stop offset="40%" stop-color="#9838D8"/>
      <stop offset="100%" stop-color="#6820A8"/>
    </radialGradient>
  </defs>
  <polygon points="95,10 126,64 95,118 33,118 2,64 33,10" fill="url(#pBody)" stroke="#280C48" stroke-width="1" stroke-linejoin="round"/>
  <polygon points="33,10 95,10 90,14 38,14" fill="white" opacity="0.20"/>
  <polygon points="95,10 126,64 122,63 90,14" fill="white" opacity="0.10"/>
  <polygon points="33,118 95,118 90,114 38,114" fill="#180828" opacity="0.18"/>
  <polygon points="2,64 33,118 37,114 6,65" fill="#180828" opacity="0.14"/>
  <polygon points="33,10 95,10 80,36 48,36" fill="#C070FF" opacity="0.35"/>
  <polygon points="95,10 126,64 96,64 80,36" fill="#A858E8" opacity="0.20"/>
  <polygon points="33,10 2,64 32,64 48,36" fill="#7830C0" opacity="0.15"/>
  <polygon points="33,118 95,118 80,92 48,92" fill="#180828" opacity="0.35"/>
  <polygon points="95,118 126,64 96,64 80,92" fill="#180828" opacity="0.20"/>
  <polygon points="2,64 33,118 48,92 32,64" fill="#180828" opacity="0.30"/>
  <g stroke="#C078FF" stroke-width="1.2" opacity="0.25">
    <line x1="95" y1="10" x2="80" y2="36"/>
    <line x1="126" y1="64" x2="96" y2="64"/>
    <line x1="95" y1="118" x2="80" y2="92"/>
    <line x1="33" y1="118" x2="48" y2="92"/>
    <line x1="2" y1="64" x2="32" y2="64"/>
    <line x1="33" y1="10" x2="48" y2="36"/>
  </g>
  <polygon points="80,36 96,64 80,92 48,92 32,64 48,36" fill="url(#pInner)"/>
  <polygon points="80,36 96,64 80,92 48,92 32,64 48,36" fill="none" stroke="#B868F8" stroke-width="1" opacity="0.30"/>
  <polygon points="76,40 90,64 76,88 52,88 38,64 52,40" fill="white" opacity="0.06"/>
  <ellipse cx="50" cy="34" rx="26" ry="16" fill="white" opacity="0.18"/>
  <ellipse cx="50" cy="32" rx="17" ry="10" fill="white" opacity="0.28"/>
  <ellipse cx="50" cy="30" rx="9" ry="5" fill="white" opacity="0.50"/>
  <circle cx="48" cy="28" r="2.5" fill="white" opacity="0.65"/>
  <ellipse cx="80" cy="96" rx="10" ry="5" fill="white" opacity="0.08"/>
  <ellipse cx="80" cy="95" rx="5" ry="3" fill="white" opacity="0.10"/>
  <line x1="40" y1="11.5" x2="88" y2="11.5" stroke="white" stroke-width="2" stroke-linecap="round" opacity="0.30"/>
  <line x1="124" y1="60" x2="112" y2="40" stroke="white" stroke-width="1" stroke-linecap="round" opacity="0.10"/>
</svg>
